<svg width="49" height="48" viewBox="0 0 49 48" fill="none" xmlns="http://www.w3.org/2000/svg">
<path d="M18.5011 9.42871C14.6365 9.42871 10.9302 10.9639 8.19756 13.6966C5.46489 16.4293 3.92969 20.1356 3.92969 24.0001C3.92969 27.8647 5.46489 31.571 8.19756 34.3037C10.9302 37.0364 14.6365 38.5716 18.5011 38.5716H30.5011C34.3657 38.5716 38.072 37.0364 40.8047 34.3037C43.5373 31.571 45.0725 27.8647 45.0725 24.0001C45.0725 20.1356 43.5373 16.4293 40.8047 13.6966C38.072 10.9639 34.3657 9.42871 30.5011 9.42871H18.5011ZM31.3583 28.2859C31.3583 28.9678 31.0873 29.6219 30.6051 30.1041C30.1229 30.5864 29.4688 30.8573 28.7868 30.8573C28.1048 30.8573 27.4508 30.5864 26.9686 30.1041C26.4863 29.6219 26.2154 28.9678 26.2154 28.2859C26.2154 27.6039 26.4863 26.9498 26.9686 26.4676C27.4508 25.9853 28.1048 25.7144 28.7868 25.7144C29.4688 25.7144 30.1229 25.9853 30.6051 26.4676C31.0873 26.9498 31.3583 27.6039 31.3583 28.2859ZM33.9297 24.0001C33.592 24.0001 33.2576 23.9336 32.9456 23.8044C32.6337 23.6752 32.3502 23.4858 32.1114 23.247C31.8726 23.0082 31.6832 22.7247 31.554 22.4128C31.4248 22.1008 31.3583 21.7664 31.3583 21.4287C31.3583 21.091 31.4248 20.7566 31.554 20.4447C31.6832 20.1327 31.8726 19.8492 32.1114 19.6104C32.3502 19.3717 32.6337 19.1822 32.9456 19.053C33.2576 18.9238 33.592 18.8573 33.9297 18.8573C34.6117 18.8573 35.2657 19.1282 35.748 19.6104C36.2302 20.0927 36.5011 20.7467 36.5011 21.4287C36.5011 22.1107 36.2302 22.7648 35.748 23.247C35.2657 23.7292 34.6117 24.0001 33.9297 24.0001ZM9.92969 23.5716C9.92969 23.2306 10.0651 22.9036 10.3063 22.6624C10.5474 22.4213 10.8744 22.2859 11.2154 22.2859H14.2154V19.2859C14.2154 18.9449 14.3509 18.6178 14.592 18.3767C14.8331 18.1356 15.1601 18.0001 15.5011 18.0001C15.8421 18.0001 16.1691 18.1356 16.4103 18.3767C16.6514 18.6178 16.7868 18.9449 16.7868 19.2859V22.2859H19.7868C20.1278 22.2859 20.4548 22.4213 20.696 22.6624C20.9371 22.9036 21.0725 23.2306 21.0725 23.5716C21.0725 23.9126 20.9371 24.2396 20.696 24.4807C20.4548 24.7218 20.1278 24.8573 19.7868 24.8573H16.7868V27.8573C16.7868 28.1983 16.6514 28.5253 16.4103 28.7664C16.1691 29.0075 15.8421 29.143 15.5011 29.143C15.1601 29.143 14.8331 29.0075 14.592 28.7664C14.3509 28.5253 14.2154 28.1983 14.2154 27.8573V24.8573H11.2154C10.8744 24.8573 10.5474 24.7218 10.3063 24.4807C10.0651 24.2396 9.92969 23.9126 9.92969 23.5716Z" fill="url(#paint0_linear_680_1008)"/>
<defs>
<linearGradient id="paint0_linear_680_1008" x1="24.5011" y1="9.42871" x2="24.5011" y2="38.5716" gradientUnits="userSpaceOnUse">
<stop stop-color="#9947D5"/>
<stop offset="1" stop-color="#C6269B"/>
</linearGradient>
</defs>
</svg>
