<svg width="48" height="48" viewBox="0 0 48 48" fill="none" xmlns="http://www.w3.org/2000/svg">
<path d="M10 6.12988H38C39.5913 6.12988 41.1174 6.76202 42.2426 7.88724C43.3679 9.01246 44 10.5386 44 12.1299V30.1299C44 31.7212 43.3679 33.2473 42.2426 34.3725C41.1174 35.4977 39.5913 36.1299 38 36.1299H10C8.4087 36.1299 6.88258 35.4977 5.75736 34.3725C4.63214 33.2473 4 31.7212 4 30.1299V12.1299C4 10.5386 4.63214 9.01246 5.75736 7.88724C6.88258 6.76202 8.4087 6.12988 10 6.12988ZM18 38.1299H30C30.5304 38.1299 31.0391 38.3406 31.4142 38.7157C31.7893 39.0907 32 39.5994 32 40.1299C32 40.6603 31.7893 41.169 31.4142 41.5441C31.0391 41.9192 30.5304 42.1299 30 42.1299H18C17.4696 42.1299 16.9609 41.9192 16.5858 41.5441C16.2107 41.169 16 40.6603 16 40.1299C16 39.5994 16.2107 39.0907 16.5858 38.7157C16.9609 38.3406 17.4696 38.1299 18 38.1299Z" fill="url(#paint0_linear_680_62)"/>
<defs>
<linearGradient id="paint0_linear_680_62" x1="24" y1="6.12988" x2="24" y2="42.1299" gradientUnits="userSpaceOnUse">
<stop stop-color="#9947D5"/>
<stop offset="1" stop-color="#C6269B"/>
</linearGradient>
</defs>
</svg>
