<svg width="49" height="48" viewBox="0 0 49 48" fill="none" xmlns="http://www.w3.org/2000/svg">
<path d="M10 9C10 7.67392 10.6321 6.40215 11.7574 5.46447C12.8826 4.52678 14.4087 4 16 4H34C35.5913 4 37.1174 4.52678 38.2426 5.46447C39.3679 6.40215 40 7.67392 40 9V39C40 40.3261 39.3679 41.5979 38.2426 42.5355C37.1174 43.4732 35.5913 44 34 44H16C14.4087 44 12.8826 43.4732 11.7574 42.5355C10.6321 41.5979 10 40.3261 10 39V9ZM28 36.5C28 35.837 27.6839 35.2011 27.1213 34.7322C26.5587 34.2634 25.7956 34 25 34C24.2044 34 23.4413 34.2634 22.8787 34.7322C22.3161 35.2011 22 35.837 22 36.5C22 37.163 22.3161 37.7989 22.8787 38.2678C23.4413 38.7366 24.2044 39 25 39C25.7956 39 26.5587 38.7366 27.1213 38.2678C27.6839 37.7989 28 37.163 28 36.5Z" fill="url(#paint0_linear_680_1432)"/>
<defs>
<linearGradient id="paint0_linear_680_1432" x1="25" y1="4" x2="25" y2="44" gradientUnits="userSpaceOnUse">
<stop stop-color="#9947D5"/>
<stop offset="1" stop-color="#C6269B"/>
</linearGradient>
</defs>
</svg>
