<svg width="48" height="48" viewBox="0 0 48 48" fill="none" xmlns="http://www.w3.org/2000/svg">
<path d="M44 20V32C44 34.1217 43.1571 36.1566 41.6569 37.6569C40.1566 39.1571 38.1217 40 36 40H12C9.87827 40 7.84344 39.1571 6.34315 37.6569C4.84285 36.1566 4 34.1217 4 32V20H44ZM14.02 28H14C13.7374 28.0013 13.4775 28.0543 13.2354 28.1561C12.9932 28.2578 12.7735 28.4062 12.5887 28.5929C12.2155 28.9698 12.0073 29.4796 12.01 30.01C12.0113 30.2726 12.0643 30.5325 12.1661 30.7746C12.2678 31.0168 12.4162 31.2365 12.6029 31.4213C12.7895 31.6061 13.0107 31.7523 13.2539 31.8516C13.497 31.9509 13.7574 32.0013 14.02 32C14.5504 32 15.0591 31.7893 15.4342 31.4142C15.8093 31.0391 16.02 30.5304 16.02 30C16.02 29.4696 15.8093 28.9609 15.4342 28.5858C15.0591 28.2107 14.5504 28 14.02 28ZM26 28H22C21.4696 28 20.9609 28.2107 20.5858 28.5858C20.2107 28.9609 20 29.4696 20 30C20 30.5304 20.2107 31.0391 20.5858 31.4142C20.9609 31.7893 21.4696 32 22 32H26C26.5304 32 27.0391 31.7893 27.4142 31.4142C27.7893 31.0391 28 30.5304 28 30C28 29.4696 27.7893 28.9609 27.4142 28.5858C27.0391 28.2107 26.5304 28 26 28ZM36 8C38.1217 8 40.1566 8.84285 41.6569 10.3431C43.1571 11.8434 44 13.8783 44 16H4C4 13.8783 4.84285 11.8434 6.34315 10.3431C7.84344 8.84285 9.87827 8 12 8H36Z" fill="url(#paint0_linear_680_1012)"/>
<defs>
<linearGradient id="paint0_linear_680_1012" x1="24" y1="8" x2="24" y2="40" gradientUnits="userSpaceOnUse">
<stop stop-color="#9947D5"/>
<stop offset="1" stop-color="#C6269B"/>
</linearGradient>
</defs>
</svg>
