<svg width="52" height="53" viewBox="0 0 52 53" fill="none" xmlns="http://www.w3.org/2000/svg">
<path d="M35.077 5.25586H16.9204C9.0337 5.25586 4.33203 9.95753 4.33203 17.8442V35.9792C4.33203 43.8875 9.0337 48.5892 16.9204 48.5892H35.0554C42.942 48.5892 47.6437 43.8875 47.6437 36.0009V17.8442C47.6654 9.95753 42.9637 5.25586 35.077 5.25586ZM24.9804 30.2375L16.9204 38.2975H21.6654C22.5537 38.2975 23.2904 39.0342 23.2904 39.9225C23.2904 40.8109 22.5537 41.5475 21.6654 41.5475H12.9987C12.782 41.5475 12.5654 41.5042 12.3704 41.4175C11.9804 41.2442 11.6554 40.9409 11.482 40.5292C11.417 40.3342 11.3737 40.1392 11.3737 39.9225V31.2559C11.3737 30.3675 12.1104 29.6309 12.9987 29.6309C13.887 29.6309 14.6237 30.3675 14.6237 31.2559V36.0009L22.6837 27.9409C23.312 27.3125 24.352 27.3125 24.9804 27.9409C25.6087 28.5692 25.6087 29.6092 24.9804 30.2375ZM40.6237 22.5892C40.6237 23.4775 39.887 24.2142 38.9987 24.2142C38.1104 24.2142 37.3737 23.4775 37.3737 22.5892V17.8442L29.3137 25.9042C28.9887 26.2292 28.577 26.3809 28.1654 26.3809C27.7537 26.3809 27.342 26.2292 27.017 25.9042C26.3887 25.2759 26.3887 24.2359 27.017 23.6075L35.077 15.5475H30.332C29.4437 15.5475 28.707 14.8109 28.707 13.9225C28.707 13.0342 29.4437 12.2975 30.332 12.2975H38.9987C39.2154 12.2975 39.4104 12.3409 39.627 12.4275C40.017 12.6009 40.342 12.9042 40.5154 13.3159C40.5804 13.5109 40.6237 13.7059 40.6237 13.9225V22.5892Z" fill="url(#paint0_linear_680_642)"/>
<defs>
<linearGradient id="paint0_linear_680_642" x1="47.6438" y1="48.5892" x2="-1.62991" y2="40.1769" gradientUnits="userSpaceOnUse">
<stop stop-color="#805AF5"/>
<stop offset="1" stop-color="#BF15C3"/>
</linearGradient>
</defs>
</svg>
