<svg width="52" height="53" viewBox="0 0 52 53" fill="none" xmlns="http://www.w3.org/2000/svg">
<path d="M19.4994 5.25586C13.8228 5.25586 9.20776 9.87086 9.20776 15.5475C9.20776 21.1159 13.5628 25.6225 19.2394 25.8175C19.4128 25.7959 19.5861 25.7959 19.7161 25.8175C19.7594 25.8175 19.7811 25.8175 19.8244 25.8175C19.8461 25.8175 19.8461 25.8175 19.8678 25.8175C25.4144 25.6225 29.7694 21.1159 29.7911 15.5475C29.7911 9.87086 25.1761 5.25586 19.4994 5.25586Z" fill="url(#paint0_linear_680_649)"/>
<path d="M30.5061 31.5809C24.4611 27.5509 14.6028 27.5509 8.51443 31.5809C5.76276 33.4225 4.24609 35.9142 4.24609 38.5792C4.24609 41.2442 5.76276 43.7142 8.49276 45.5342C11.5261 47.5709 15.5128 48.5892 19.4994 48.5892C23.4861 48.5892 27.4728 47.5709 30.5061 45.5342C33.2361 43.6925 34.7528 41.2225 34.7528 38.5359C34.7311 35.8709 33.2361 33.4009 30.5061 31.5809Z" fill="url(#paint1_linear_680_649)"/>
<path d="M43.3111 16.8259C43.6578 21.0292 40.6678 24.7125 36.5294 25.2109C36.5078 25.2109 36.5078 25.2109 36.4861 25.2109H36.4211C36.2911 25.2109 36.1611 25.2109 36.0528 25.2542C33.9511 25.3625 32.0228 24.6909 30.5711 23.4559C32.8028 21.4625 34.0811 18.4725 33.8211 15.2225C33.6694 13.4675 33.0628 11.8642 32.1528 10.4992C32.9761 10.0875 33.9294 9.82753 34.9044 9.74086C39.1511 9.37253 42.9428 12.5359 43.3111 16.8259Z" fill="url(#paint2_linear_680_649)"/>
<path d="M47.6444 36.8675C47.4711 38.9692 46.1278 40.7892 43.8744 42.0242C41.7078 43.2159 38.9778 43.7792 36.2694 43.7142C37.8294 42.3059 38.7394 40.5509 38.9128 38.6875C39.1294 36.0009 37.8511 33.4225 35.2944 31.3642C33.8428 30.2159 32.1528 29.3059 30.3111 28.6342C35.0994 27.2475 41.1228 28.1792 44.8278 31.1692C46.8211 32.7725 47.8394 34.7875 47.6444 36.8675Z" fill="url(#paint3_linear_680_649)"/>
<defs>
<linearGradient id="paint0_linear_680_649" x1="47.6681" y1="48.5892" x2="-1.72389" y2="40.1352" gradientUnits="userSpaceOnUse">
<stop stop-color="#805AF5"/>
<stop offset="1" stop-color="#BF15C3"/>
</linearGradient>
<linearGradient id="paint1_linear_680_649" x1="47.6681" y1="48.5892" x2="-1.72389" y2="40.1352" gradientUnits="userSpaceOnUse">
<stop stop-color="#805AF5"/>
<stop offset="1" stop-color="#BF15C3"/>
</linearGradient>
<linearGradient id="paint2_linear_680_649" x1="47.6681" y1="48.5892" x2="-1.72389" y2="40.1352" gradientUnits="userSpaceOnUse">
<stop stop-color="#805AF5"/>
<stop offset="1" stop-color="#BF15C3"/>
</linearGradient>
<linearGradient id="paint3_linear_680_649" x1="47.6681" y1="48.5892" x2="-1.72389" y2="40.1352" gradientUnits="userSpaceOnUse">
<stop stop-color="#805AF5"/>
<stop offset="1" stop-color="#BF15C3"/>
</linearGradient>
</defs>
</svg>
