<svg width="52" height="53" viewBox="0 0 52 53" fill="none" xmlns="http://www.w3.org/2000/svg">
<path d="M12.4369 35.5892C12.6753 34.5275 12.2419 33.0109 11.4836 32.2525L6.2186 26.9875C4.57193 25.3409 3.92193 23.5859 4.3986 22.0692C4.89693 20.5525 6.43526 19.5125 8.73193 19.1225L15.4919 17.9959C16.4669 17.8225 17.6586 16.9559 18.1136 16.0675L21.8403 8.59253C22.9236 6.44753 24.3969 5.25586 26.0003 5.25586C27.6036 5.25586 29.0769 6.44753 30.1603 8.59253L33.8869 16.0675C34.1686 16.6309 34.7536 17.1725 35.3819 17.5409L12.0469 40.8759C11.7436 41.1792 11.2236 40.8975 11.3103 40.4642L12.4369 35.5892Z" fill="url(#paint0_linear_680_656)"/>
<path d="M40.5169 32.2525C39.7369 33.0325 39.3036 34.5275 39.5636 35.5892L41.0586 42.1109C41.6869 44.8192 41.2969 46.8559 39.9536 47.8309C39.4119 48.2209 38.7619 48.4159 38.0036 48.4159C36.8986 48.4159 35.5986 48.0042 34.1686 47.1592L27.8203 43.3892C26.8236 42.8042 25.1769 42.8042 24.1803 43.3892L17.8319 47.1592C15.4269 48.5675 13.3686 48.8059 12.0469 47.8309C11.5486 47.4625 11.1803 46.9642 10.9419 46.3142L37.2886 19.9675C38.2853 18.9709 39.6936 18.5159 41.0586 18.7542L43.2469 19.1225C45.5436 19.5125 47.0819 20.5525 47.5803 22.0692C48.0569 23.5859 47.4069 25.3409 45.7603 26.9875L40.5169 32.2525Z" fill="url(#paint1_linear_680_656)"/>
<defs>
<linearGradient id="paint0_linear_680_656" x1="47.7328" y1="48.4213" x2="-1.71759" y2="39.9118" gradientUnits="userSpaceOnUse">
<stop stop-color="#805AF5"/>
<stop offset="1" stop-color="#BF15C3"/>
</linearGradient>
<linearGradient id="paint1_linear_680_656" x1="47.7328" y1="48.4213" x2="-1.71759" y2="39.9118" gradientUnits="userSpaceOnUse">
<stop stop-color="#805AF5"/>
<stop offset="1" stop-color="#BF15C3"/>
</linearGradient>
</defs>
</svg>
