<svg width="25" height="24" viewBox="0 0 25 24" fill="none" xmlns="http://www.w3.org/2000/svg">
<path d="M22.9236 9.8209C23.4741 8.18597 23.2834 6.39634 22.401 4.91024C21.0737 2.63172 18.4062 1.45953 15.8014 2.01021C13.5309 -0.480741 9.64352 -0.684599 7.11781 1.55469C6.3163 2.26549 5.71825 3.17113 5.38402 4.18185C3.67263 4.52823 2.19579 5.58496 1.33118 7.08188C-0.0103131 9.3568 0.294208 12.2266 2.08424 14.1786C1.53191 15.8126 1.72075 17.6027 2.60228 19.0893C3.93097 21.3687 6.60024 22.5409 9.20642 21.9893C10.3659 23.2769 12.0312 24.0098 13.7773 23.9999C16.4475 24.0022 18.8132 22.3018 19.6284 19.7942C21.3393 19.4474 22.8162 18.3906 23.6812 16.8942C25.0067 14.6233 24.7008 11.7688 22.9236 9.82135V9.8209ZM13.7773 22.4295C12.7115 22.4313 11.6791 22.0628 10.8611 21.3885L11.0051 21.3082L15.8494 18.5498C16.0945 18.4078 16.2458 18.1489 16.2477 17.8684V11.1311L18.2956 12.2997C18.3162 12.31 18.3303 12.3294 18.334 12.3515V17.9342C18.3285 20.4143 16.2916 22.4236 13.7773 22.429V22.4295ZM3.98355 18.304C3.44906 17.3939 3.25702 16.3268 3.44174 15.2904L3.58576 15.3756L8.43463 18.1336C8.67879 18.2752 8.98193 18.2752 9.22609 18.1336L15.1494 14.7654V17.098C15.148 17.1224 15.1357 17.1449 15.116 17.1594L10.2096 19.9507C8.02906 21.1896 5.24365 20.4531 3.984 18.304H3.98355ZM2.7079 7.89551C3.24605 6.97905 4.09556 6.28043 5.10603 5.92277V11.6001C5.10237 11.8793 5.2528 12.1387 5.49924 12.2767L11.3938 15.6309L9.34586 16.7994C9.32346 16.8112 9.29649 16.8112 9.27409 16.7994L4.37721 14.0126C2.20128 12.7687 1.45511 10.0229 2.7079 7.8716V7.89551ZM19.5328 11.7512L13.6191 8.36366L15.662 7.20004C15.6844 7.18832 15.7113 7.18832 15.7337 7.20004L20.6306 9.99137C22.8102 11.2321 23.5573 13.9811 22.2995 16.1306C21.77 17.0358 20.9374 17.7303 19.9448 18.0957V12.4183C19.9361 12.1396 19.7793 11.8861 19.5324 11.7512H19.5328ZM21.5711 8.72808L21.4271 8.64284L16.5878 5.86098C16.3419 5.71891 16.0373 5.71891 15.7918 5.86098L9.8735 9.22916V6.89651C9.87121 6.87261 9.88221 6.8487 9.90232 6.83517L14.7992 4.04835C16.982 2.80806 19.771 3.54772 21.0284 5.70087C21.5597 6.61011 21.7517 7.67406 21.5716 8.70824V8.72718L21.5711 8.72808ZM8.75605 12.863L6.70814 11.6994C6.68757 11.6872 6.6734 11.666 6.66974 11.6425V6.07386C6.67294 3.58877 8.71811 1.57724 11.237 1.5804C12.3 1.58175 13.3297 1.94933 14.1472 2.61999L14.0032 2.70027L9.15887 5.45867C8.91379 5.60074 8.76245 5.85963 8.76062 6.14016L8.75605 12.863ZM9.86848 10.4974L12.5062 8.99779L15.149 10.4974V13.4967L12.5158 14.9967L9.8735 13.4967L9.86895 10.4974H9.86848Z" fill="url(#paint0_linear_429_2538)"/>
<defs>
<linearGradient id="paint0_linear_429_2538" x1="12.5" y1="0" x2="12.5" y2="24" gradientUnits="userSpaceOnUse">
<stop stop-color="#805AF5"/>
<stop offset="1" stop-color="#BF15C3"/>
</linearGradient>
</defs>
</svg>
