<svg width="52" height="53" viewBox="0 0 52 53" fill="none" xmlns="http://www.w3.org/2000/svg">
<path d="M25.8682 5.71147L20.6466 17.8665H15.4249C14.5582 17.8665 13.7132 17.9315 12.8899 18.1048L15.0566 12.9048L15.1432 12.7098L15.2732 12.3631C15.3382 12.2115 15.3816 12.0815 15.4466 11.9731C17.9599 6.1448 20.7766 4.3248 25.8682 5.71147Z" fill="url(#paint0_linear_680_663)"/>
<path d="M40.5799 18.4515L40.5366 18.4298C39.2366 18.0615 37.9149 17.8665 36.5716 17.8665H23.0082L27.8832 6.5348L27.9482 6.38314C28.2516 6.49147 28.5766 6.64314 28.9016 6.75147L33.6899 8.76647C36.3549 9.87147 38.2182 11.0198 39.3666 12.4065C39.5616 12.6665 39.7349 12.9048 39.9082 13.1865C40.1032 13.4898 40.2549 13.7931 40.3416 14.1181C40.4282 14.3131 40.4932 14.4865 40.5366 14.6815C40.8616 15.7865 40.8832 17.0431 40.5799 18.4515Z" fill="url(#paint1_linear_680_663)"/>
<path d="M27.1249 39.1865H27.6666C28.3166 39.1865 28.8582 38.6015 28.8582 37.8865C28.8582 36.9765 28.5982 36.8465 28.0349 36.6298L27.1249 36.3048V39.1865Z" fill="url(#paint2_linear_680_663)"/>
<path d="M39.6266 21.5498C38.6516 21.2681 37.6332 21.1165 36.5716 21.1165H15.4249C13.9516 21.1165 12.5649 21.3981 11.2649 21.9615C7.4949 23.5865 4.85156 27.3348 4.85156 31.6898V35.9148C4.85156 36.4348 4.8949 36.9331 4.9599 37.4531C5.43656 44.3431 9.11989 48.0265 16.0099 48.4815C16.5082 48.5465 17.0066 48.5898 17.5482 48.5898H34.4482C42.4649 48.5898 46.6899 44.7765 47.1016 37.1931C47.1232 36.7815 47.1449 36.3481 47.1449 35.9148V31.6898C47.1449 26.9015 43.9599 22.8715 39.6266 21.5498ZM28.7716 34.5065C29.7682 34.8531 31.1116 35.5898 31.1116 37.8865C31.1116 39.8581 29.5732 41.4398 27.6666 41.4398H27.1249V41.9165C27.1249 42.5448 26.6266 43.0431 25.9982 43.0431C25.3699 43.0431 24.8716 42.5448 24.8716 41.9165V41.4398H24.6766C22.5966 41.4398 20.8849 39.6848 20.8849 37.5181C20.8849 36.8898 21.3832 36.3915 22.0116 36.3915C22.6399 36.3915 23.1382 36.8898 23.1382 37.5181C23.1382 38.4281 23.8316 39.1865 24.6766 39.1865H24.8716V35.5248L23.2249 34.9398C22.2282 34.5931 20.8849 33.8565 20.8849 31.5598C20.8849 29.5881 22.4232 28.0065 24.3299 28.0065H24.8716V27.5298C24.8716 26.9015 25.3699 26.4031 25.9982 26.4031C26.6266 26.4031 27.1249 26.9015 27.1249 27.5298V28.0065H27.3199C29.3999 28.0065 31.1116 29.7615 31.1116 31.9281C31.1116 32.5565 30.6132 33.0548 29.9849 33.0548C29.3566 33.0548 28.8582 32.5565 28.8582 31.9281C28.8582 31.0181 28.1649 30.2598 27.3199 30.2598H27.1249V33.9215L28.7716 34.5065Z" fill="url(#paint3_linear_680_663)"/>
<path d="M23.1382 31.5598C23.1382 32.4698 23.3982 32.5998 23.9616 32.8165L24.8716 33.1415V30.2598H24.3299C23.6582 30.2598 23.1382 30.8448 23.1382 31.5598Z" fill="url(#paint4_linear_680_663)"/>
<defs>
<linearGradient id="paint0_linear_680_663" x1="47.1449" y1="48.5898" x2="-1.03282" y2="40.5556" gradientUnits="userSpaceOnUse">
<stop stop-color="#805AF5"/>
<stop offset="1" stop-color="#BF15C3"/>
</linearGradient>
<linearGradient id="paint1_linear_680_663" x1="47.1449" y1="48.5898" x2="-1.03282" y2="40.5556" gradientUnits="userSpaceOnUse">
<stop stop-color="#805AF5"/>
<stop offset="1" stop-color="#BF15C3"/>
</linearGradient>
<linearGradient id="paint2_linear_680_663" x1="47.1449" y1="48.5898" x2="-1.03282" y2="40.5556" gradientUnits="userSpaceOnUse">
<stop stop-color="#805AF5"/>
<stop offset="1" stop-color="#BF15C3"/>
</linearGradient>
<linearGradient id="paint3_linear_680_663" x1="47.1449" y1="48.5898" x2="-1.03282" y2="40.5556" gradientUnits="userSpaceOnUse">
<stop stop-color="#805AF5"/>
<stop offset="1" stop-color="#BF15C3"/>
</linearGradient>
<linearGradient id="paint4_linear_680_663" x1="47.1449" y1="48.5898" x2="-1.03282" y2="40.5556" gradientUnits="userSpaceOnUse">
<stop stop-color="#805AF5"/>
<stop offset="1" stop-color="#BF15C3"/>
</linearGradient>
</defs>
</svg>
